<svg width="24" height="26" viewBox="0 0 24 26" fill="none" xmlns="http://www.w3.org/2000/svg">
<path d="M20.75 14.9825V10.5C20.75 6.47875 18.0187 3.09125 14.3187 2.0725C13.9525 1.15 13.0575 0.5 12 0.5C10.9425 0.5 10.0475 1.15 9.68125 2.0725C5.98125 3.0925 3.25 6.47875 3.25 10.5V14.9825L1.11625 17.1163C0.88125 17.35 0.75 17.6675 0.75 18V20.5C0.75 21.1912 1.30875 21.75 2 21.75H22C22.6912 21.75 23.25 21.1912 23.25 20.5V18C23.25 17.6675 23.1188 17.35 22.8838 17.1163L20.75 14.9825ZM20.75 19.25H3.25V18.5175L5.38375 16.3837C5.61875 16.15 5.75 15.8325 5.75 15.5V10.5C5.75 7.05375 8.55375 4.25 12 4.25C15.4462 4.25 18.25 7.05375 18.25 10.5V15.5C18.25 15.8325 18.3812 16.15 18.6162 16.3837L20.75 18.5175V19.25ZM12 25.5C13.6388 25.5 15.0087 24.4575 15.5225 23H8.4775C8.99125 24.4575 10.3612 25.5 12 25.5Z" fill="#939393"/>
</svg>
