<svg width="20" height="20" viewBox="0 0 20 20" fill="none" xmlns="http://www.w3.org/2000/svg">
<path d="M15.707 10.293C15.316 9.90201 14.684 9.90201 14.293 10.293L12.699 11.887C11.96 11.667 10.581 11.167 9.707 10.293C8.833 9.41901 8.333 8.04001 8.113 7.30101L9.707 5.70701C10.098 5.31601 10.098 4.68401 9.707 4.29301L5.707 0.293006C5.316 -0.0979941 4.684 -0.0979941 4.293 0.293006L1.581 3.00501C1.201 3.38501 0.986998 3.90701 0.994998 4.44001C1.018 5.86401 1.395 10.81 5.293 14.708C9.191 18.606 14.137 18.982 15.562 19.006C15.567 19.006 15.585 19.006 15.59 19.006C16.118 19.006 16.617 18.798 16.995 18.42L19.707 15.708C20.098 15.317 20.098 14.685 19.707 14.294L15.707 10.293ZM15.58 17.005C14.332 16.984 10.062 16.649 6.707 13.293C3.341 9.92701 3.015 5.64201 2.995 4.41901L5 2.41401L7.586 5.00001L6.293 6.29301C6.054 6.53101 5.952 6.87501 6.021 7.20501C6.045 7.32001 6.632 10.047 8.292 11.707C9.952 13.367 12.679 13.954 12.794 13.978C13.127 14.049 13.468 13.946 13.706 13.707L15 12.414L17.586 15L15.58 17.005Z" fill="#3a7a58"/>
</svg>
